<svg width="112" height="24" viewBox="0 0 112 24" fill="none" xmlns="http://www.w3.org/2000/svg">
<g clip-path="url(#clip0_1568_3941)">
<path fill-rule="evenodd" clip-rule="evenodd" d="M106.771 18.6067C105.553 19.9165 104.098 20.4559 102.211 20.4559C100.482 20.4559 98.9877 19.801 97.9263 18.4912C96.8649 17.1814 96.3145 15.6019 96.3145 13.5987C96.3145 11.7496 96.8649 10.1701 98.0442 8.86036C99.2236 7.55054 100.717 6.89565 102.329 6.89565C104.216 6.89565 105.71 7.55054 106.771 8.86036C107.833 10.1701 108.501 11.7496 108.501 13.7528C108.501 15.679 107.99 17.297 106.771 18.6067ZM108.265 7.12679L107.44 6.31779C105.71 4.46867 103.666 3.54414 101.386 3.54414C98.8305 3.54414 96.5503 4.46867 94.9386 6.43338C93.2089 8.2825 92.3833 10.7865 92.3833 13.5602C92.3833 16.4495 93.3268 18.9535 94.9386 20.8026C96.6683 22.6517 98.9877 23.6918 101.543 23.6918C103.705 23.6918 105.592 22.7673 107.44 21.1878L108.108 20.5329V23.191H112V4.08348H108.108V7.12679H108.265ZM78.113 13.7143C78.113 17.6822 76.1081 20.1862 72.7273 20.1862C69.3464 20.1862 67.3415 17.6822 67.3415 13.7143V4.08348H63.4496V13.7143C63.4496 19.4928 67.3415 23.7304 72.7273 23.7304C78.113 23.7304 82.0049 19.5313 82.0049 13.7143V4.08348H78.113L78.113 13.7143ZM85.6609 23.1911H89.5528V4.08348H85.6609V23.1911ZM60.6585 13.8684C60.6585 8.32102 56.2162 3.96789 50.7125 3.73675C50.5946 3.73675 50.4373 3.8523 50.5946 4.0064C50.9877 4.8154 51.9312 6.626 53.543 7.82023C55.7052 9.39966 56.9238 11.3644 56.9238 13.7528C56.9238 16.7961 54.4865 20.2247 50.4766 20.2247C46.4275 20.2247 44.0295 16.7961 44.0295 13.7528C44.0295 11.3644 45.3661 9.39966 47.4103 7.82023C49.0221 6.51041 50.0835 4.82312 50.3587 4.01413C50.4766 3.89854 50.3587 3.74448 50.2408 3.74448C44.5798 3.86002 40.1376 8.20547 40.1376 13.7143C40.1376 18.183 44.0295 23.4607 50.3587 23.4607C53.1892 23.4607 55.5872 22.6517 57.3563 21.2263L59.3612 23.0755H65.0221L59.715 18.183C60.2654 17.0273 60.6585 15.5634 60.6585 13.8684ZM7.27275 16.488L11.8329 6.58749L16.4324 16.488H7.27275ZM11.715 0C11.0467 0 10.4963 0.385239 10.2211 0.924537L0 23.191H4.04913L5.54298 20.0321H17.9263L19.4201 23.191H23.4693L13.3268 1.07864C13.0516 0.423754 12.3833 0 11.715 0ZM33.1007 7.39648C34.8305 7.39648 36.4815 8.05137 37.543 9.0915C37.9361 7.89726 38.6044 6.85714 39.43 5.77849C37.7002 4.46867 35.5381 3.65968 33.1007 3.65968C27.4398 3.69824 22.7224 8.20547 22.7224 13.8684C22.7224 19.4157 27.2826 24 33.0614 24C35.4988 24 37.6216 23.191 39.3906 21.8812C38.5651 20.8411 38.054 19.7625 37.5037 18.5682C36.285 19.6084 34.8305 20.2632 33.0614 20.2632C29.4447 20.2632 26.457 17.374 26.457 13.7913C26.4963 10.2857 29.4447 7.39648 33.1007 7.39648Z" fill="white"/>
</g>
<defs>
<clipPath id="clip0_1568_3941">
<rect width="112" height="24" fill="white"/>
</clipPath>
</defs>
</svg>
