<svg width="248" height="40" viewBox="0 0 248 40" fill="none" xmlns="http://www.w3.org/2000/svg">
<path d="M5.99991 40L7.47447 34H13.2529L5.99991 40Z" fill="#0090FF"/>
<rect width="248" height="34" rx="8" fill="#0090FF"/>
<path d="M18.548 22H17.176V11.878H18.548V16.232H23.56V11.878H24.932V22H23.56V17.506H18.548V22ZM26.6075 18.57C26.6075 16.456 28.1195 14.972 30.1775 14.972C32.2215 14.972 33.7335 16.456 33.7335 18.57C33.7335 20.684 32.2215 22.168 30.1775 22.168C28.1195 22.168 26.6075 20.684 26.6075 18.57ZM27.9375 18.57C27.9375 19.998 28.8475 20.992 30.1775 20.992C31.4935 20.992 32.4175 19.998 32.4175 18.57C32.4175 17.142 31.4935 16.148 30.1775 16.148C28.8475 16.148 27.9375 17.142 27.9375 18.57ZM36.3458 22L34.1058 15.154H35.4638L36.5978 18.71C36.7518 19.214 36.8918 19.732 37.0178 20.334C37.1298 19.732 37.3118 19.158 37.4658 18.71L38.6138 15.154H39.9578L41.0918 18.71C41.2038 19.046 41.4278 19.844 41.5398 20.334C41.6518 19.788 41.7778 19.312 41.9738 18.71L43.1218 15.154H44.4938L42.1558 22H40.9098L39.7198 18.332C39.4958 17.646 39.3558 17.114 39.2858 16.736C39.2158 17.072 39.0898 17.52 38.8378 18.346L37.6478 22H36.3458ZM49.002 18.584C49.002 16.442 50.36 14.958 52.362 14.958C54.084 14.958 55.288 15.938 55.526 17.464H54.21C53.986 16.596 53.286 16.134 52.404 16.134C51.158 16.134 50.304 17.086 50.304 18.57C50.304 20.04 51.102 20.992 52.348 20.992C53.286 20.992 53.986 20.502 54.224 19.69H55.54C55.274 21.174 54 22.168 52.348 22.168C50.332 22.168 49.002 20.74 49.002 18.584ZM58.9306 22.168C57.4606 22.168 56.5926 21.342 56.5926 20.096C56.5926 18.836 57.5306 18.052 59.1406 17.926L61.2966 17.758V17.562C61.2966 16.414 60.6106 16.008 59.6866 16.008C58.5806 16.008 57.9506 16.498 57.9506 17.324H56.8026C56.8026 15.896 57.9786 14.958 59.7426 14.958C61.4366 14.958 62.5846 15.854 62.5846 17.702V22H61.4646L61.3246 20.894C60.9746 21.678 60.0366 22.168 58.9306 22.168ZM59.3086 21.146C60.5546 21.146 61.3106 20.334 61.3106 19.046V18.682L59.5606 18.822C58.3986 18.934 57.9226 19.382 57.9226 20.054C57.9226 20.782 58.4546 21.146 59.3086 21.146ZM65.7231 22H64.4071V15.154H65.5971L65.7371 16.204C66.1711 15.42 67.0391 14.958 68.0051 14.958C69.8111 14.958 70.6371 16.064 70.6371 17.814V22H69.3211V18.108C69.3211 16.722 68.6771 16.162 67.6691 16.162C66.4371 16.162 65.7231 17.044 65.7231 18.374V22ZM77.8839 11.878V22H76.5119V11.878H77.8839ZM85.1645 21.986H83.8485V11.696H85.1645V16.204C85.5985 15.462 86.4245 14.958 87.4885 14.958C89.2385 14.958 90.0785 16.064 90.0785 17.814V22H88.7625V18.108C88.7625 16.722 88.1045 16.162 87.1245 16.162C85.8505 16.162 85.1645 17.086 85.1645 18.262V21.986ZM94.8552 22.168C92.8392 22.168 91.4532 20.712 91.4532 18.584C91.4532 16.442 92.8112 14.958 94.7992 14.958C96.7452 14.958 98.0192 16.302 98.0192 18.332V18.822L92.7272 18.836C92.8252 20.278 93.5812 21.076 94.8832 21.076C95.9052 21.076 96.5772 20.656 96.8012 19.872H98.0332C97.6972 21.342 96.5492 22.168 94.8552 22.168ZM94.7992 16.064C93.6512 16.064 92.9232 16.75 92.7552 17.954H96.7032C96.7032 16.82 95.9612 16.064 94.7992 16.064ZM100.833 22H99.5171V11.696H100.833V22ZM102.77 25.066V15.154H103.96L104.058 16.386C104.52 15.448 105.444 14.958 106.536 14.958C108.496 14.958 109.714 16.428 109.714 18.528C109.714 20.614 108.566 22.182 106.536 22.182C105.444 22.182 104.534 21.72 104.086 20.88V25.066H102.77ZM104.1 18.584C104.1 19.984 104.912 20.992 106.256 20.992C107.6 20.992 108.398 19.984 108.398 18.584C108.398 17.17 107.6 16.162 106.256 16.162C104.912 16.162 104.1 17.156 104.1 18.584ZM114.335 25.066V23.988H115.217C115.847 23.988 116.351 23.89 116.673 23.022L116.911 22.364L114.153 15.154H115.539L117.527 20.67L119.557 15.154H120.915L117.681 23.54C117.219 24.716 116.533 25.206 115.483 25.206C115.049 25.206 114.685 25.15 114.335 25.066ZM121.258 18.57C121.258 16.456 122.77 14.972 124.828 14.972C126.872 14.972 128.384 16.456 128.384 18.57C128.384 20.684 126.872 22.168 124.828 22.168C122.77 22.168 121.258 20.684 121.258 18.57ZM122.588 18.57C122.588 19.998 123.498 20.992 124.828 20.992C126.144 20.992 127.068 19.998 127.068 18.57C127.068 17.142 126.144 16.148 124.828 16.148C123.498 16.148 122.588 17.142 122.588 18.57ZM134.409 15.154H135.711V22H134.535L134.395 20.964C134.003 21.678 133.093 22.168 132.085 22.168C130.489 22.168 129.593 21.09 129.593 19.41V15.154H130.909V18.976C130.909 20.446 131.539 21.006 132.547 21.006C133.751 21.006 134.409 20.236 134.409 18.766V15.154ZM143.38 22H142.064V16.26H140.72V15.154H142.064V13.012H143.38V15.154H144.724V16.26H143.38V22ZM145.389 18.57C145.389 16.456 146.901 14.972 148.959 14.972C151.003 14.972 152.515 16.456 152.515 18.57C152.515 20.684 151.003 22.168 148.959 22.168C146.901 22.168 145.389 20.684 145.389 18.57ZM146.719 18.57C146.719 19.998 147.629 20.992 148.959 20.992C150.275 20.992 151.199 19.998 151.199 18.57C151.199 17.142 150.275 16.148 148.959 16.148C147.629 16.148 146.719 17.142 146.719 18.57ZM156.716 22.168C154.728 22.168 153.524 20.684 153.524 18.598C153.524 16.498 154.742 14.958 156.772 14.958C157.822 14.958 158.704 15.42 159.166 16.26V11.696H160.468V22H159.292L159.18 20.754C158.732 21.692 157.808 22.168 156.716 22.168ZM156.982 20.978C158.326 20.978 159.152 19.984 159.152 18.556C159.152 17.156 158.326 16.148 156.982 16.148C155.638 16.148 154.854 17.156 154.854 18.556C154.854 19.97 155.638 20.978 156.982 20.978ZM164.368 22.168C162.898 22.168 162.03 21.342 162.03 20.096C162.03 18.836 162.968 18.052 164.578 17.926L166.734 17.758V17.562C166.734 16.414 166.048 16.008 165.124 16.008C164.018 16.008 163.388 16.498 163.388 17.324H162.24C162.24 15.896 163.416 14.958 165.18 14.958C166.874 14.958 168.022 15.854 168.022 17.702V22H166.902L166.762 20.894C166.412 21.678 165.474 22.168 164.368 22.168ZM164.746 21.146C165.992 21.146 166.748 20.334 166.748 19.046V18.682L164.998 18.822C163.836 18.934 163.36 19.382 163.36 20.054C163.36 20.782 163.892 21.146 164.746 21.146ZM169.023 25.066V23.988H169.905C170.535 23.988 171.039 23.89 171.361 23.022L171.599 22.364L168.841 15.154H170.227L172.215 20.67L174.245 15.154H175.603L172.369 23.54C171.907 24.716 171.221 25.206 170.171 25.206C169.737 25.206 169.373 25.15 169.023 25.066ZM184.905 22.154C182.021 22.154 180.103 20.082 180.103 16.946C180.103 13.824 182.077 11.71 184.975 11.71C187.257 11.71 189.007 13.068 189.385 15.14H187.915C187.537 13.824 186.403 13.026 184.933 13.026C182.889 13.026 181.545 14.566 181.545 16.932C181.545 19.298 182.889 20.838 184.933 20.838C186.417 20.838 187.593 20.04 187.971 18.794H189.427C188.993 20.81 187.187 22.154 184.905 22.154ZM192.751 22.168C191.281 22.168 190.413 21.342 190.413 20.096C190.413 18.836 191.351 18.052 192.961 17.926L195.117 17.758V17.562C195.117 16.414 194.431 16.008 193.507 16.008C192.401 16.008 191.771 16.498 191.771 17.324H190.623C190.623 15.896 191.799 14.958 193.563 14.958C195.257 14.958 196.405 15.854 196.405 17.702V22H195.285L195.145 20.894C194.795 21.678 193.857 22.168 192.751 22.168ZM193.129 21.146C194.375 21.146 195.131 20.334 195.131 19.046V18.682L193.381 18.822C192.219 18.934 191.743 19.382 191.743 20.054C191.743 20.782 192.275 21.146 193.129 21.146ZM199.571 22H198.255V11.696H199.571V22ZM202.853 22H201.537V11.696H202.853V22ZM209.522 15.154H210.824V22H209.648L209.508 20.964C209.116 21.678 208.206 22.168 207.198 22.168C205.602 22.168 204.706 21.09 204.706 19.41V15.154H206.022V18.976C206.022 20.446 206.652 21.006 207.66 21.006C208.864 21.006 209.522 20.236 209.522 18.766V15.154ZM214.049 22H212.733V15.154H213.909L214.035 16.05C214.385 15.406 215.113 14.958 216.079 14.958C217.143 14.958 217.899 15.49 218.249 16.344C218.571 15.49 219.397 14.958 220.461 14.958C222.029 14.958 222.981 15.938 222.981 17.52V22H221.693V17.842C221.693 16.764 221.091 16.148 220.167 16.148C219.173 16.148 218.515 16.848 218.515 17.94V22H217.213V17.828C217.213 16.75 216.625 16.162 215.701 16.162C214.707 16.162 214.049 16.848 214.049 17.94V22ZM227.844 19.55H226.626V19.2C226.626 18.01 227.396 17.366 228.152 16.778C228.838 16.246 229.468 15.728 229.468 14.804C229.468 13.726 228.754 12.928 227.606 12.928C226.5 12.928 225.674 13.796 225.674 14.944H224.316C224.316 13.082 225.744 11.696 227.634 11.696C229.622 11.696 230.854 12.956 230.854 14.734C230.854 16.204 229.902 16.918 229.09 17.506C228.348 18.038 227.844 18.486 227.844 19.2V19.55ZM227.298 22.196C226.738 22.196 226.29 21.748 226.29 21.202C226.29 20.656 226.738 20.208 227.298 20.208C227.83 20.208 228.292 20.67 228.292 21.202C228.292 21.734 227.83 22.196 227.298 22.196Z" fill="white"/>
</svg>
