<svg width="309" height="72" viewBox="0 0 309 72" fill="none" xmlns="http://www.w3.org/2000/svg">
<path d="M0 8C0 3.58172 3.58172 0 8 0H301C305.418 0 309 3.58172 309 8V24C309 28.4183 305.418 32 301 32H8.00001C3.58173 32 0 28.4183 0 24V8Z" fill="#8E4EC6"/>
<rect width="15" height="15" transform="translate(8 8.5)" fill="white" fill-opacity="0.01"/>
<path d="M14 19.5V12.5L18.5 16L14 19.5Z" fill="white"/>
<rect width="15" height="15" transform="translate(27 8.5)" fill="white" fill-opacity="0.01"/>
<path fill-rule="evenodd" clip-rule="evenodd" d="M39.5 10.5H29.5C29.2239 10.5 29 10.7239 29 11V21C29 21.2761 29.2239 21.5 29.5 21.5H39.5C39.7761 21.5 40 21.2761 40 21V11C40 10.7239 39.7761 10.5 39.5 10.5ZM29.5 9.5C28.6716 9.5 28 10.1716 28 11V21C28 21.8284 28.6716 22.5 29.5 22.5H39.5C40.3284 22.5 41 21.8284 41 21V11C41 10.1716 40.3284 9.5 39.5 9.5H29.5Z" fill="white"/>
<path d="M53.8496 20.1992C53.2324 20.1992 52.6934 20.0996 52.2324 19.9004C51.7754 19.6973 51.4121 19.4199 51.1426 19.0684C50.877 18.7129 50.7227 18.3066 50.6797 17.8496L50.6738 17.7852H51.7285L51.7344 17.8496C51.7617 18.1309 51.8691 18.375 52.0566 18.582C52.248 18.7852 52.502 18.9434 52.8184 19.0566C53.1387 19.1699 53.502 19.2266 53.9082 19.2266C54.291 19.2266 54.6309 19.166 54.9277 19.0449C55.2285 18.9199 55.4648 18.748 55.6367 18.5293C55.8086 18.3105 55.8945 18.0586 55.8945 17.7734V17.7676C55.8945 17.416 55.7656 17.1211 55.5078 16.8828C55.25 16.6406 54.8301 16.4551 54.248 16.3262L53.3105 16.1211C52.4629 15.9336 51.8457 15.6445 51.459 15.2539C51.0762 14.8594 50.8848 14.3555 50.8848 13.7422V13.7363C50.8887 13.2676 51.0156 12.8535 51.2656 12.4941C51.5195 12.1348 51.8691 11.8535 52.3145 11.6504C52.7637 11.4473 53.2793 11.3457 53.8613 11.3457C54.4238 11.3457 54.9219 11.4473 55.3555 11.6504C55.7891 11.8496 56.1328 12.1191 56.3867 12.459C56.6445 12.7988 56.7871 13.1797 56.8145 13.6016L56.8203 13.6836H55.7656L55.7539 13.6074C55.7148 13.3574 55.6133 13.1367 55.4492 12.9453C55.2852 12.75 55.0664 12.5957 54.793 12.4824C54.5195 12.3691 54.1992 12.3145 53.832 12.3184C53.4805 12.3184 53.1641 12.373 52.8828 12.4824C52.6016 12.5918 52.377 12.75 52.209 12.957C52.0449 13.1602 51.9629 13.4102 51.9629 13.707V13.7129C51.9629 14.0488 52.0879 14.332 52.3379 14.5625C52.5879 14.793 53 14.9707 53.5742 15.0957L54.5117 15.3066C55.1016 15.4355 55.5762 15.6035 55.9355 15.8105C56.2949 16.0176 56.5566 16.2715 56.7207 16.5723C56.8887 16.8691 56.9727 17.2207 56.9727 17.627V17.6328C56.9727 18.1602 56.8438 18.6152 56.5859 18.998C56.3281 19.3809 55.9648 19.6777 55.4961 19.8887C55.0273 20.0957 54.4785 20.1992 53.8496 20.1992ZM58.7002 20V11.1758H59.7197V20H58.7002ZM64.3124 20.1113C63.7148 20.1113 63.1972 19.9805 62.7597 19.7188C62.3261 19.4531 61.9902 19.0762 61.7519 18.5879C61.5175 18.0996 61.4003 17.5195 61.4003 16.8477V16.8359C61.4003 16.1602 61.5175 15.5781 61.7519 15.0898C61.9902 14.6016 62.3261 14.2266 62.7597 13.9648C63.1972 13.7031 63.7148 13.5723 64.3124 13.5723C64.914 13.5723 65.4316 13.7031 65.8652 13.9648C66.2987 14.2266 66.6327 14.6016 66.8671 15.0898C67.1054 15.5781 67.2245 16.1602 67.2245 16.8359V16.8477C67.2245 17.5195 67.1054 18.0996 66.8671 18.5879C66.6327 19.0762 66.2987 19.4531 65.8652 19.7188C65.4316 19.9805 64.914 20.1113 64.3124 20.1113ZM64.3124 19.209C64.7109 19.209 65.0487 19.1152 65.3261 18.9277C65.6034 18.7402 65.8144 18.4707 65.9589 18.1191C66.1073 17.7676 66.1816 17.3438 66.1816 16.8477V16.8359C66.1816 16.3359 66.1073 15.9102 65.9589 15.5586C65.8144 15.207 65.6034 14.9395 65.3261 14.7559C65.0487 14.5684 64.7109 14.4746 64.3124 14.4746C63.914 14.4746 63.5761 14.5684 63.2987 14.7559C63.0214 14.9395 62.8085 15.207 62.6601 15.5586C62.5155 15.9102 62.4433 16.3359 62.4433 16.8359V16.8477C62.4433 17.3438 62.5155 17.7676 62.6601 18.1191C62.8085 18.4707 63.0214 18.7402 63.2987 18.9277C63.5761 19.1152 63.914 19.209 64.3124 19.209ZM71.0907 20.0469C70.4423 20.0469 69.9716 19.916 69.6786 19.6543C69.3895 19.3926 69.245 18.9609 69.245 18.3594V14.5273H68.2489V13.6836H69.245V12.0488H70.2997V13.6836H71.6825V14.5273H70.2997V18.1016C70.2997 18.4727 70.37 18.7402 70.5106 18.9043C70.6513 19.0645 70.8856 19.1445 71.2138 19.1445C71.3036 19.1445 71.3798 19.1426 71.4423 19.1387C71.5087 19.1348 71.5888 19.1289 71.6825 19.1211V19.9883C71.5848 20.0039 71.4872 20.0176 71.3895 20.0293C71.2919 20.041 71.1923 20.0469 71.0907 20.0469Z" fill="white"/>
<rect y="40" width="309" height="32" rx="8" fill="#0090FF"/>
<rect width="15" height="15" transform="translate(8 48.5)" fill="white" fill-opacity="0.01"/>
<path d="M14 59.5V52.5L18.5 56L14 59.5Z" fill="white"/>
<rect width="15" height="15" transform="translate(27 48.5)" fill="white" fill-opacity="0.01"/>
<path fill-rule="evenodd" clip-rule="evenodd" d="M30.5 50.5C30.2239 50.5 30 50.7239 30 51V61C30 61.2761 30.2239 61.5 30.5 61.5H38.5C38.7761 61.5 39 61.2761 39 61V54.5H35.5C35.2239 54.5 35 54.2761 35 54V50.5H30.5ZM36 51.2071L38.2929 53.5H36V51.2071ZM29 51C29 50.1716 29.6716 49.5 30.5 49.5H35.5C35.6326 49.5 35.7598 49.5527 35.8535 49.6465L39.8536 53.6465C39.9473 53.7402 40 53.8674 40 54V61C40 61.8284 39.3284 62.5 38.5 62.5H30.5C29.6716 62.5 29 61.8284 29 61V51Z" fill="white"/>
<path d="M51.0781 60V51.5449H54.3066C54.8496 51.5449 55.3223 51.6504 55.7246 51.8613C56.1309 52.0684 56.4453 52.3594 56.668 52.7344C56.8906 53.1094 57.002 53.5508 57.002 54.0586V54.0703C57.002 54.6562 56.8516 55.1641 56.5508 55.5938C56.25 56.0234 55.834 56.3223 55.3027 56.4902L57.2598 60H56.0234L54.2129 56.6543C54.2051 56.6543 54.1953 56.6543 54.1836 56.6543C54.1719 56.6543 54.1621 56.6543 54.1543 56.6543H52.1328V60H51.0781ZM52.1328 55.7168H54.2129C54.7559 55.7168 55.1738 55.5781 55.4668 55.3008C55.7637 55.0195 55.9121 54.6211 55.9121 54.1055V54.0938C55.9121 53.5898 55.7578 53.1953 55.4492 52.9102C55.1406 52.625 54.7129 52.4824 54.166 52.4824H52.1328V55.7168ZM61.2314 60.1113C60.6298 60.1113 60.1123 59.9785 59.6787 59.7129C59.249 59.4473 58.917 59.0723 58.6826 58.5879C58.4521 58.0996 58.3369 57.5254 58.3369 56.8652V56.8594C58.3369 56.207 58.4521 55.6348 58.6826 55.1426C58.917 54.6504 59.247 54.2656 59.6728 53.9883C60.0986 53.7109 60.5966 53.5723 61.167 53.5723C61.7412 53.5723 62.2334 53.7051 62.6435 53.9707C63.0576 54.2363 63.374 54.6074 63.5927 55.084C63.8154 55.5566 63.9267 56.1074 63.9267 56.7363V57.1348H58.8642V56.3203H63.4052L62.9013 57.0645V56.6602C62.9013 56.1641 62.8271 55.7559 62.6787 55.4355C62.5302 55.1152 62.3252 54.877 62.0634 54.7207C61.8017 54.5605 61.5009 54.4805 61.1611 54.4805C60.8212 54.4805 60.5166 54.5645 60.247 54.7324C59.9814 54.8965 59.7705 55.1406 59.6142 55.4648C59.458 55.7891 59.3798 56.1875 59.3798 56.6602V57.0645C59.3798 57.5137 59.456 57.8984 59.6084 58.2188C59.7607 58.5352 59.9775 58.7793 60.2587 58.9512C60.54 59.1191 60.872 59.2031 61.2548 59.2031C61.54 59.2031 61.788 59.1641 61.999 59.0859C62.2099 59.0078 62.3837 58.9082 62.5205 58.7871C62.6572 58.666 62.7529 58.543 62.8076 58.418L62.831 58.3652H63.8505L63.8388 58.4121C63.7841 58.627 63.6865 58.8359 63.5459 59.0391C63.4091 59.2383 63.2314 59.4199 63.0127 59.584C62.7939 59.7441 62.5341 59.873 62.2334 59.9707C61.9365 60.0645 61.6025 60.1113 61.2314 60.1113ZM68.1503 62.2266C67.6425 62.2266 67.1991 62.1543 66.8202 62.0098C66.4413 61.8691 66.1386 61.668 65.912 61.4062C65.6894 61.1484 65.5507 60.8477 65.496 60.5039L65.5077 60.498H66.5624L66.5683 60.5039C66.623 60.7422 66.787 60.9375 67.0605 61.0898C67.3339 61.2461 67.6972 61.3242 68.1503 61.3242C68.7167 61.3242 69.1581 61.1953 69.4745 60.9375C69.7948 60.6836 69.955 60.3242 69.955 59.8594V58.582H69.8612C69.7284 58.8125 69.5624 59.0098 69.3632 59.1738C69.164 59.3379 68.9394 59.4629 68.6894 59.5488C68.4394 59.6309 68.1698 59.6719 67.8808 59.6719C67.3378 59.6719 66.8671 59.543 66.4687 59.2852C66.0741 59.0234 65.7695 58.6641 65.5546 58.207C65.3398 57.75 65.2323 57.2266 65.2323 56.6367V56.625C65.2323 56.0352 65.3398 55.5117 65.5546 55.0547C65.7734 54.5938 66.082 54.2324 66.4804 53.9707C66.8788 53.7051 67.3534 53.5723 67.9042 53.5723C68.2011 53.5723 68.4745 53.6191 68.7245 53.7129C68.9745 53.8066 69.1952 53.9395 69.3866 54.1113C69.582 54.2832 69.7441 54.4883 69.873 54.7266H69.9433V53.6836H70.9628V59.9121C70.9628 60.3809 70.8476 60.7891 70.6171 61.1367C70.3905 61.4844 70.0663 61.752 69.6445 61.9395C69.2226 62.1309 68.7245 62.2266 68.1503 62.2266ZM68.1034 58.7695C68.4941 58.7695 68.828 58.6797 69.1054 58.5C69.3866 58.3164 69.6015 58.0645 69.7499 57.7441C69.9023 57.4238 69.9784 57.0547 69.9784 56.6367V56.625C69.9784 56.207 69.9023 55.8359 69.7499 55.5117C69.6015 55.1875 69.3866 54.9336 69.1054 54.75C68.828 54.5664 68.4941 54.4746 68.1034 54.4746C67.7128 54.4746 67.3808 54.5664 67.1073 54.75C66.8378 54.9336 66.6308 55.1875 66.4862 55.5117C66.3456 55.8359 66.2753 56.207 66.2753 56.625V56.6367C66.2753 57.0547 66.3456 57.4238 66.4862 57.7441C66.6308 58.0645 66.8378 58.3164 67.1073 58.5C67.3808 58.6797 67.7128 58.7695 68.1034 58.7695ZM72.9247 60V53.6836H73.9442V60H72.9247ZM73.4403 52.4648C73.2489 52.4648 73.0829 52.3965 72.9423 52.2598C72.8055 52.1191 72.7372 51.9531 72.7372 51.7617C72.7372 51.5664 72.8055 51.4004 72.9423 51.2637C73.0829 51.127 73.2489 51.0586 73.4403 51.0586C73.6356 51.0586 73.8016 51.127 73.9384 51.2637C74.0751 51.4004 74.1434 51.5664 74.1434 51.7617C74.1434 51.9531 74.0751 52.1191 73.9384 52.2598C73.8016 52.3965 73.6356 52.4648 73.4403 52.4648ZM78.5018 60.1113C77.9041 60.1113 77.3866 59.9805 76.9491 59.7188C76.5155 59.4531 76.1795 59.0762 75.9412 58.5879C75.7069 58.0996 75.5897 57.5195 75.5897 56.8477V56.8359C75.5897 56.1602 75.7069 55.5781 75.9412 55.0898C76.1795 54.6016 76.5155 54.2266 76.9491 53.9648C77.3866 53.7031 77.9041 53.5723 78.5018 53.5723C79.1034 53.5723 79.6209 53.7031 80.0545 53.9648C80.4881 54.2266 80.8221 54.6016 81.0565 55.0898C81.2948 55.5781 81.4139 56.1602 81.4139 56.8359V56.8477C81.4139 57.5195 81.2948 58.0996 81.0565 58.5879C80.8221 59.0762 80.4881 59.4531 80.0545 59.7188C79.6209 59.9805 79.1034 60.1113 78.5018 60.1113ZM78.5018 59.209C78.9002 59.209 79.2381 59.1152 79.5155 58.9277C79.7928 58.7402 80.0037 58.4707 80.1483 58.1191C80.2967 57.7676 80.3709 57.3438 80.3709 56.8477V56.8359C80.3709 56.3359 80.2967 55.9102 80.1483 55.5586C80.0037 55.207 79.7928 54.9395 79.5155 54.7559C79.2381 54.5684 78.9002 54.4746 78.5018 54.4746C78.1034 54.4746 77.7655 54.5684 77.4881 54.7559C77.2108 54.9395 76.9979 55.207 76.8495 55.5586C76.7049 55.9102 76.6327 56.3359 76.6327 56.8359V56.8477C76.6327 57.3438 76.7049 57.7676 76.8495 58.1191C76.9979 58.4707 77.2108 58.7402 77.4881 58.9277C77.7655 59.1152 78.1034 59.209 78.5018 59.209ZM83.0359 60V53.6836H84.0555V54.6328H84.1492C84.3094 54.2969 84.5398 54.0371 84.8406 53.8535C85.1414 53.666 85.5242 53.5723 85.9891 53.5723C86.7 53.5723 87.2449 53.7754 87.6238 54.1816C88.0066 54.584 88.198 55.1602 88.198 55.9102V60H87.1785V56.1562C87.1785 55.5859 87.0574 55.1641 86.8152 54.8906C86.577 54.6133 86.2059 54.4746 85.702 54.4746C85.366 54.4746 85.075 54.5469 84.8289 54.6914C84.5828 54.8359 84.3914 55.041 84.2547 55.3066C84.1219 55.5723 84.0555 55.8906 84.0555 56.2617V60H83.0359Z" fill="white"/>
</svg>
