<svg width="300" height="60" viewBox="0 0 300 60" fill="none" xmlns="http://www.w3.org/2000/svg">
<rect width="60" height="60" rx="10" fill="white"/>
<rect x="120" width="60" height="60" rx="10" fill="white"/>
<rect x="60" y="30" width="60" height="1.25" fill="#FF0000"/>
<rect x="83.8125" y="33" width="11.875" height="10.9375" rx="1.25" fill="#FF0000"/>
<path d="M89.4867 39.7086H89V40.4688H88.3383V39.7086H86.3094V39.0961L88.1195 36.4711H89V39.0961H89.4867V39.7086ZM87.0531 39.0961H88.3383V37.2258L87.0531 39.0961ZM89.9214 39.3367C89.9214 38.8609 90.1894 38.4781 90.605 38.3195C90.255 38.1609 90.0636 37.8602 90.0636 37.4719C90.0636 36.8375 90.6269 36.4 91.4526 36.4C92.273 36.4 92.8253 36.832 92.8253 37.4828C92.8253 37.8711 92.6284 38.1719 92.273 38.3195C92.6941 38.4672 92.9675 38.8555 92.9675 39.3367C92.9675 40.0586 92.3714 40.5344 91.4417 40.5344C90.5175 40.5344 89.9214 40.0641 89.9214 39.3367ZM90.698 37.532C90.698 37.8656 90.9878 38.0789 91.4417 38.0789C91.8901 38.0789 92.1745 37.8711 92.1745 37.5375C92.1745 37.2039 91.8901 36.9961 91.4417 36.9961C90.9878 36.9961 90.698 37.2039 90.698 37.532ZM90.605 39.2875C90.605 39.6758 90.9276 39.9164 91.4472 39.9164C91.9558 39.9164 92.2784 39.6758 92.2784 39.2875C92.2784 38.8992 91.9558 38.6586 91.4417 38.6586C90.9276 38.6586 90.605 38.8992 90.605 39.2875Z" fill="white"/>
<rect x="240" width="60" height="60" rx="10" fill="white"/>
<rect x="180" y="30" width="60" height="1.25" fill="#FF0000"/>
<rect x="203.812" y="33" width="11.875" height="10.9375" rx="1.25" fill="#FF0000"/>
<path d="M209.487 39.7086H209V40.4688H208.338V39.7086H206.309V39.0961L208.12 36.4711H209V39.0961H209.487V39.7086ZM207.053 39.0961H208.338V37.2258L207.053 39.0961ZM209.921 39.3367C209.921 38.8609 210.189 38.4781 210.605 38.3195C210.255 38.1609 210.064 37.8602 210.064 37.4719C210.064 36.8375 210.627 36.4 211.453 36.4C212.273 36.4 212.825 36.832 212.825 37.4828C212.825 37.8711 212.628 38.1719 212.273 38.3195C212.694 38.4672 212.967 38.8555 212.967 39.3367C212.967 40.0586 212.371 40.5344 211.442 40.5344C210.517 40.5344 209.921 40.0641 209.921 39.3367ZM210.698 37.532C210.698 37.8656 210.988 38.0789 211.442 38.0789C211.89 38.0789 212.175 37.8711 212.175 37.5375C212.175 37.2039 211.89 36.9961 211.442 36.9961C210.988 36.9961 210.698 37.2039 210.698 37.532ZM210.605 39.2875C210.605 39.6758 210.928 39.9164 211.447 39.9164C211.956 39.9164 212.278 39.6758 212.278 39.2875C212.278 38.8992 211.956 38.6586 211.442 38.6586C210.928 38.6586 210.605 38.8992 210.605 39.2875Z" fill="white"/>
</svg>
